# xmcd
#
# Track frame offsets: 
#        150
#        21006
#        39612
#        52980
#        71281
#        84621
#        102148
#        120132
#        140734
#        156825
#        175821
#        189908
#        209330
#        227333
#
# Disc length: 3339 seconds
#
# Revision: 0
# Processed by: cddbd v1.5.2PL0 Copyright (c) Steve Scherf et al.
# Submitted via: ExactAudioCopy v0.99pb4
#
DISCID=aa0d090e
DTITLE=Savage-C and Shiesty - Weed, Pills and Hennessy
DYEAR=2011
DGENRE=Rap
TTITLE0=Brains On The Pathway
TTITLE1=Old School Whip Ft. Ad Kapone
TTITLE2=J.G. Wentworth
TTITLE3=Joe Jackson
TTITLE4=Too Far Gone
TTITLE5=18 To 21 Ft. K Dinero
TTITLE6=Lights Out Ft. Mista Cane
TTITLE7=Blood In The Sink
TTITLE8=Ninja Turtle Sewer
TTITLE9=Talladega Nights
TTITLE10=To The Top Ft. Mike Calkins
TTITLE11=Patrick Swayze
TTITLE12=Avocado
TTITLE13=Fillmore Slim Ft. Mista Cane
EXTD=
EXTT0=
EXTT1=
EXTT2=
EXTT3=
EXTT4=
EXTT5=
EXTT6=
EXTT7=
EXTT8=
EXTT9=
EXTT10=
EXTT11=
EXTT12=
EXTT13=
PLAYORDER=
